General                          : ChattChitto RG - Movies [R2L]
==========
Complete name                    : Main Street 2010 720p BRRip H264 [ChattChitto RG]
Format                           : MPEG-4
Format profile                   : Base Media
Codec ID                         : isom
File size                        : 1.81 GiB
Duration                         : 1h 33mn
Overall bit rate                 : 2 759 Kbps
Encoded date                     : UTC 2011-04-11 02:49:53

Video
==========
ID                               : 1
Format                           : AVC
Format/Info                      : Advanced Video Codec
Format profile                   : High@L4.1
Format settings, CABAC           : Yes
Format settings, ReFrames        : 4 frames
Codec ID                         : avc1
Codec ID/Info                    : Advanced Video Coding
Duration                         : 1h 33mn
Bit rate mode                    : Variable
Bit rate                         : 2 400 Kbps
Maximum bit rate                 : 18.0 Mbps
Width                            : 1 280 pixels
Height                           : 528 pixels
Display aspect ratio             : 2.40:1
Frame rate mode                  : Constant
Frame rate                       : 24.000 fps
Color space                      : YUV
Chroma subsampling               : 4:2:0
Bit depth                        : 8 bits
Scan type                        : Progressive
Bits/(Pixel*Frame)               : 0.148
Stream size                      : 1.57 GiB (87%)
Writing library                  : x264 core 114 r1913 5fd3dce
Encoded date                     : UTC 2011-04-08 22:06:21

Audio
ID                               : 2
Format                           : AAC
Format/Info                      : Advanced Audio Codec
Format profile                   : LC
Codec ID                         : 40
Duration                         : 1h 33mn
Bit rate mode                    : Variable
Bit rate                         : 352.8 Kbps
Maximum bit rate                 : 455 Kbps
Channel(s)                       : 6 channels
Channel positions                : Front: L C R, Side: L R, LFE
Sampling rate                    : 48.0 KHz
Compression mode                 : Lossy
Stream size                      : 239 MiB (13%)
Encoded date                     : UTC 2011-04-11 02:50:18

Subtitles                        : Danish | Norwwegin | Swedish


----------------------------------------------------
IMDB Link: http://www.imdb.com/title/tt1365483/
----------------------------------------------------



Screen Shots:
==============    
http://chattchitto.net/chattchittorg/movies/brrip/2011/main_street/1.png 
http://chattchitto.net/chattchittorg/movies/brrip/2011/main_street/2.png 
http://chattchitto.net/chattchittorg/movies/brrip/2011/main_street/3.png 
http://chattchitto.net/chattchittorg/movies/brrip/2011/main_street/4.png 
http://chattchitto.net/chattchittorg/movies/brrip/2011/main_street/5.png 
http://chattchitto.net/chattchittorg/movies/brrip/2011/main_street/6.png 
http://chattchitto.net/chattchittorg/movies/brrip/2011/main_street/7.png



ScreenShots Comparison:
=========================  
http://screenshotcomparison.com/comparison/43927



Plot:
======
Several residents of a small Southern city whose lives are changed by the arrival of a stranger with a controversial plan to save their decaying hometown.



Release Info:
==============
original name .... : Main Street 2010 720p BRRip H264 [ChattChitto RG]
ripper.............: SAiMORNY
encoder............: Recalled2Life (R2L)
video codec........: H264/.MP4
video bitrate......: 2400
audio codec........: AAC-LC
aspect ratio.......: 2.40:1
resolution.........: 1280 x 528
genre..............: Drama         
runtime............: 1h 33mn
language...........: English
rating.............: Not Rated
subtitles..........: Danish | Norwwegin | Swedish
sample.............: Yes
2ch Audio..........: 2ch Audio for XBox Viewers
Compatibility .....: XBox | PS3 | WD Live



Source:
========
Main.Street.2010.720p.BluRay.x264-SAiMORNY



Notes:
=======
ChattChitto RG Encourages Burning this Film with ConvertXtoDVD and Playing with VLC media player.
XBox 360 | PS3 | WD Live - Compatible 
Enhanced for your viewing pleasure ;)